<svg width="38" height="38" viewBox="0 0 38 38" fill="none" xmlns="http://www.w3.org/2000/svg">
<path d="M18.9911 36.9823C28.9238 36.9823 36.9823 28.9238 36.9823 18.9911C36.9823 9.05854 28.9238 1 18.9911 1C9.05854 1 1 9.05854 1 18.9911C1 28.9238 9.05854 36.9823 18.9911 36.9823Z" stroke="#F2F2F2" stroke-miterlimit="10"/>
<path d="M5.98757 18.1199L16.712 11.6412C16.8657 11.5491 17.0412 11.4995 17.2203 11.4976C17.3995 11.4957 17.576 11.5415 17.7316 11.6303C17.8873 11.7191 18.0165 11.8477 18.1061 12.0029C18.1956 12.1581 18.2423 12.3344 18.2412 12.5136V17.5098L27.9564 11.6412C28.1102 11.5491 28.2856 11.4995 28.4648 11.4976C28.644 11.4957 28.8205 11.5415 28.9761 11.6303C29.1318 11.7191 29.261 11.8477 29.3505 12.0029C29.4401 12.1581 29.4867 12.3344 29.4857 12.5136V25.4691C29.4867 25.6482 29.4401 25.8245 29.3505 25.9797C29.261 26.1349 29.1318 26.2635 28.9761 26.3523C28.8205 26.4411 28.644 26.4869 28.4648 26.485C28.2856 26.4831 28.1102 26.4335 27.9564 26.3414L18.2412 20.4728V25.4691C18.2423 25.6482 18.1956 25.8245 18.1061 25.9797C18.0165 26.1349 17.8873 26.2635 17.7316 26.3523C17.576 26.4411 17.3995 26.4869 17.2203 26.485C17.0412 26.4831 16.8657 26.4335 16.712 26.3414L5.98757 19.8627C5.83808 19.7717 5.71453 19.6437 5.6288 19.4911C5.54308 19.3384 5.49805 19.1663 5.49805 18.9913C5.49805 18.8163 5.54308 18.6442 5.6288 18.4915C5.71453 18.3389 5.83808 18.2109 5.98757 18.1199Z" fill="#F2F2F2"/>
</svg>
