<svg width="34" height="35" viewBox="0 0 34 35" fill="none" xmlns="http://www.w3.org/2000/svg">
<path d="M27.625 29.5312L4.25 5.46875" stroke="white" stroke-width="1.5625" stroke-miterlimit="10" stroke-linecap="round"/>
<path d="M14.875 9.3597V11.6703C14.8751 11.7426 14.9031 11.8119 14.9527 11.863L16.5464 13.5036C16.5836 13.5419 16.6308 13.568 16.6823 13.5785C16.7338 13.5891 16.7872 13.5838 16.8357 13.5631C16.8843 13.5425 16.9258 13.5075 16.955 13.4626C16.9843 13.4177 16.9999 13.3649 17 13.3109V8.24203C17.003 7.93942 16.9263 7.64163 16.7782 7.38023C16.6301 7.11883 16.416 6.90356 16.1586 6.75726C15.8934 6.61031 15.5931 6.54404 15.2926 6.56619C14.9922 6.58834 14.7041 6.698 14.462 6.88236C14.4468 6.89322 14.4322 6.90485 14.4181 6.91722L12.2971 8.70482C12.2685 8.72904 12.245 8.75916 12.2284 8.79326C12.2117 8.82735 12.2022 8.86465 12.2004 8.90277C12.1985 8.94089 12.2045 8.97898 12.2179 9.01458C12.2312 9.05019 12.2516 9.08252 12.2779 9.10951L13.4101 10.2757C13.4568 10.3238 13.5191 10.3522 13.585 10.3555C13.651 10.3588 13.7157 10.3367 13.7667 10.2935L14.875 9.3597ZM14.875 25.6402L9.69066 21.2706C9.31006 20.9524 8.83426 20.7795 8.34395 20.7812H4.25V14.2187H7.61813C7.67063 14.2186 7.72194 14.2025 7.76556 14.1724C7.80918 14.1423 7.84315 14.0996 7.86319 14.0496C7.88323 13.9996 7.88843 13.9447 7.87815 13.8917C7.86786 13.8387 7.84254 13.79 7.80539 13.7518L6.21164 12.1112C6.16195 12.0601 6.09461 12.0313 6.02438 12.0312H3.71875C3.29606 12.0312 2.89068 12.204 2.5918 12.5117C2.29291 12.8194 2.125 13.2367 2.125 13.6718V21.3281C2.125 21.7632 2.29291 22.1805 2.5918 22.4882C2.89068 22.7958 3.29606 22.9687 3.71875 22.9687H8.35125L14.4181 28.082C14.4322 28.0943 14.4468 28.106 14.462 28.1168C14.7071 28.3037 14.9994 28.4139 15.3038 28.4344C15.6081 28.4549 15.9118 28.3847 16.1786 28.2324C16.4307 28.0846 16.6398 27.87 16.7842 27.611C16.9287 27.352 17.0032 27.0579 17 26.7592V23.3296C16.9999 23.2573 16.9719 23.188 16.9223 23.1369L15.3286 21.4962C15.2914 21.458 15.2442 21.4319 15.1927 21.4213C15.1412 21.4107 15.0878 21.4161 15.0393 21.4367C14.9907 21.4574 14.9492 21.4923 14.92 21.5372C14.8907 21.5821 14.8751 21.6349 14.875 21.689V25.6402ZM23.375 17.4999C23.375 15.821 22.9892 14.2269 22.1963 12.628C22.0653 12.375 21.843 12.1852 21.5774 12.0992C21.3118 12.0133 21.024 12.0381 20.7759 12.1684C20.5279 12.2986 20.3394 12.5239 20.2511 12.7958C20.1628 13.0676 20.1817 13.3643 20.3037 13.6219C20.9405 14.9064 21.25 16.1751 21.25 17.4999C21.25 17.6822 21.2431 17.8675 21.2294 18.0557C21.2237 18.1341 21.2346 18.2129 21.2612 18.2866C21.2877 18.3604 21.3295 18.4273 21.3835 18.4829L22.689 19.8276C22.7228 19.8625 22.7652 19.8874 22.8116 19.8996C22.858 19.9118 22.9068 19.9109 22.9528 19.8969C22.9987 19.8829 23.0401 19.8563 23.0726 19.82C23.1051 19.7838 23.1274 19.7391 23.1373 19.6909C23.2944 18.9717 23.3741 18.237 23.375 17.4999ZM27.625 17.4999C27.625 14.0006 26.7564 11.7653 25.3552 9.29271C25.2113 9.0462 24.9789 8.86795 24.7083 8.79656C24.4376 8.72517 24.1506 8.76638 23.9092 8.91127C23.6679 9.05616 23.4917 9.29307 23.4188 9.5707C23.3459 9.84834 23.3822 10.1444 23.5198 10.3947C24.7742 12.6081 25.5 14.4805 25.5 17.4999C25.5 19.1289 25.2815 20.4312 24.8778 21.6459C24.8453 21.7428 24.8399 21.847 24.8623 21.9469C24.8846 22.0467 24.9337 22.1381 25.0039 22.2106L26.1176 23.3563C26.1483 23.3881 26.1862 23.4116 26.2279 23.4247C26.2696 23.4379 26.3138 23.4403 26.3565 23.4317C26.3993 23.4231 26.4394 23.4038 26.4732 23.3755C26.5071 23.3472 26.5336 23.3108 26.5505 23.2695C27.2325 21.5933 27.625 19.818 27.625 17.4999Z" fill="white"/>
<path d="M31.8755 17.5001C31.8755 12.4237 30.5347 9.22108 28.5213 5.97401C28.3697 5.72926 28.1298 5.55654 27.8544 5.49385C27.5791 5.43116 27.2908 5.48364 27.0531 5.63974C26.8153 5.79584 26.6475 6.04277 26.5866 6.32622C26.5257 6.60967 26.5767 6.90641 26.7283 7.15116C28.5432 10.0749 29.7505 12.9542 29.7505 17.5001C29.7505 20.7437 29.1595 23.1138 28.184 25.2247C28.1602 25.2756 28.1524 25.3329 28.1616 25.3886C28.1707 25.4443 28.1964 25.4957 28.2351 25.5357L29.4185 26.7553C29.448 26.7859 29.4842 26.8089 29.5241 26.8224C29.564 26.8358 29.6064 26.8394 29.6479 26.8327C29.6894 26.826 29.7287 26.8093 29.7627 26.784C29.7967 26.7587 29.8244 26.7254 29.8435 26.6869C31.2699 23.8042 31.8755 20.9864 31.8755 17.5001Z" fill="white"/>
</svg>
