<svg width="38" height="38" viewBox="0 0 38 38" fill="none" xmlns="http://www.w3.org/2000/svg">
<path d="M19.1339 1.01771C9.20125 1.01771 1.14271 9.07625 1.14271 19.0089C1.14271 28.9415 9.20125 37 19.1339 37C29.0665 37 37.125 28.9415 37.125 19.0089C37.125 9.07625 29.0665 1.01771 19.1339 1.01771Z" stroke="#F2F2F2" stroke-miterlimit="10"/>
<path d="M32.1374 19.8801L21.413 26.3588C21.2593 26.4509 21.0839 26.5005 20.9047 26.5024C20.7255 26.5043 20.549 26.4585 20.3934 26.3697C20.2377 26.2809 20.1085 26.1523 20.0189 25.9971C19.9294 25.8419 19.8827 25.6656 19.8838 25.4864V20.4902L10.1686 26.3588C10.0148 26.4509 9.83939 26.5005 9.6602 26.5024C9.48102 26.5043 9.30455 26.4585 9.1489 26.3697C8.99325 26.2809 8.86402 26.1523 8.77447 25.9971C8.68492 25.8419 8.63827 25.6656 8.63931 25.4864L8.63931 12.531C8.63827 12.3518 8.68492 12.1755 8.77447 12.0203C8.86402 11.8651 8.99325 11.7365 9.1489 11.6477C9.30455 11.5589 9.48102 11.5131 9.6602 11.515C9.83939 11.5169 10.0148 11.5665 10.1686 11.6586L19.8838 17.5272L19.8838 12.531C19.8827 12.3518 19.9294 12.1755 20.0189 12.0203C20.1085 11.8651 20.2377 11.7365 20.3934 11.6477C20.549 11.5589 20.7255 11.5131 20.9047 11.515C21.0839 11.5169 21.2593 11.5665 21.413 11.6586L32.1374 18.1373C32.2869 18.2283 32.4105 18.3563 32.4962 18.5089C32.5819 18.6616 32.627 18.8337 32.627 19.0087C32.627 19.1837 32.5819 19.3558 32.4962 19.5085C32.4105 19.6611 32.2869 19.7891 32.1374 19.8801Z" fill="#F2F2F2"/>
</svg>
