<svg width="32" height="25" viewBox="0 0 32 25" fill="none" xmlns="http://www.w3.org/2000/svg">
<path d="M17.1875 19.5203C17.1875 22.5422 19.6453 25 22.6672 25C25.6891 25 28.1469 22.5422 28.1469 19.5203C28.1469 19.2437 28.1047 18.9781 28.0641 18.7125H28.125V3.125H31.25V0H26.5625C26.1481 0 25.7507 0.16462 25.4576 0.457646C25.1646 0.750672 25 1.1481 25 1.5625V14.5828C24.2725 14.2307 23.4754 14.046 22.6672 14.0422C21.2145 14.0434 19.8217 14.6209 18.7944 15.648C17.7671 16.675 17.1892 18.0677 17.1875 19.5203ZM0 1.5625H21.875V4.6875H0V1.5625Z" fill="#F2F2F2"/>
<path d="M0 7.8125H21.875V10.9375H0V7.8125ZM0 14.0625H14.0625V17.1875H0V14.0625ZM0 20.3125H14.0625V23.4375H0V20.3125Z" fill="#F2F2F2"/>
</svg>
