<svg width="32" height="28" viewBox="0 0 32 28" fill="none" xmlns="http://www.w3.org/2000/svg">
<g clip-path="url(#clip0_840_131)">
<path d="M0 14C0.00332135 11.2315 1.16125 8.57737 3.21975 6.61977C5.27825 4.66217 8.06923 3.561 10.9804 3.55784H28.7859L26.629 1.50521C26.4628 1.33554 26.3723 1.11113 26.3766 0.879253C26.3809 0.647376 26.4796 0.426139 26.6521 0.262152C26.8245 0.0981644 27.0572 0.00423064 27.301 0.000139444C27.5448 -0.00395175 27.7808 0.082119 27.9592 0.240219L31.7239 3.82039C31.9002 3.98821 31.9992 4.2157 31.9992 4.45288C31.9992 4.69007 31.9002 4.91756 31.7239 5.08538L27.9592 8.66555C27.7808 8.82365 27.5448 8.90972 27.301 8.90563C27.0572 8.90154 26.8245 8.8076 26.6521 8.64362C26.4796 8.47963 26.3809 8.25839 26.3766 8.02652C26.3723 7.79464 26.4628 7.57023 26.629 7.40056L28.7859 5.34793H10.9804C8.56833 5.35069 6.2559 6.26313 4.55032 7.88511C2.84473 9.50709 1.88526 11.7062 1.88235 14C1.88235 14.2374 1.78319 14.465 1.60669 14.6329C1.43018 14.8007 1.19079 14.895 0.941177 14.895C0.691561 14.895 0.452169 14.8007 0.275664 14.6329C0.0991593 14.465 0 14.2374 0 14ZM31.0588 13.105C30.8092 13.105 30.5698 13.1993 30.3933 13.3671C30.2168 13.535 30.1176 13.7626 30.1176 14C30.1147 16.2938 29.1553 18.4929 27.4497 20.1149C25.7441 21.7369 23.4317 22.6493 21.0196 22.6521H3.21412L5.37098 20.5994C5.53723 20.4298 5.62774 20.2054 5.62344 19.9735C5.61913 19.7416 5.52036 19.5204 5.34792 19.3564C5.17548 19.1924 4.94284 19.0985 4.69901 19.0944C4.45518 19.0903 4.2192 19.1764 4.04078 19.3345L0.276078 22.9146C0.0998269 23.0824 0.000828163 23.3099 0.000828163 23.5471C0.000828163 23.7843 0.0998269 24.0118 0.276078 24.1796L4.04078 27.7598C4.2192 27.9179 4.45518 28.004 4.69901 27.9999C4.94284 27.9958 5.17548 27.9018 5.34792 27.7378C5.52036 27.5739 5.61913 27.3526 5.62344 27.1207C5.62774 26.8889 5.53723 26.6645 5.37098 26.4948L3.21412 24.4422H21.0196C23.9308 24.439 26.7217 23.3378 28.7803 21.3802C30.8388 19.4226 31.9967 16.7685 32 14C32 13.7626 31.9008 13.535 31.7243 13.3671C31.5478 13.1993 31.3084 13.105 31.0588 13.105Z" fill="white"/>
</g>
<defs>
<clipPath id="clip0_840_131">
<rect width="32" height="28" fill="white"/>
</clipPath>
</defs>
</svg>
