<svg width="32" height="28" viewBox="0 0 32 28" fill="none" xmlns="http://www.w3.org/2000/svg">
<g clip-path="url(#clip0_840_133)">
<path d="M0.959961 14C0.96315 11.2315 2.07487 8.57737 4.05123 6.61977C6.02759 4.66217 8.7072 3.561 11.5022 3.55784H28.5972L26.5264 1.50521C26.3668 1.33554 26.2799 1.11113 26.284 0.879253C26.2881 0.647376 26.383 0.426139 26.5485 0.262152C26.7141 0.0981644 26.9374 0.00423064 27.1715 0.000139444C27.4056 -0.00395175 27.6322 0.082119 27.8035 0.240219L31.418 3.82039C31.5872 3.98821 31.6822 4.2157 31.6822 4.45288C31.6822 4.69007 31.5872 4.91756 31.418 5.08538L27.8035 8.66555C27.6322 8.82365 27.4056 8.90972 27.1715 8.90563C26.9374 8.90154 26.7141 8.8076 26.5485 8.64362C26.383 8.47963 26.2881 8.25839 26.284 8.02652C26.2799 7.79464 26.3668 7.57023 26.5264 7.40056L28.5972 5.34793H11.5022C9.18638 5.35069 6.96622 6.26313 5.3287 7.88511C3.69118 9.50709 2.76999 11.7062 2.7672 14C2.7672 14.2374 2.672 14.465 2.50254 14.6329C2.33307 14.8007 2.10324 14.895 1.86358 14.895C1.62393 14.895 1.39409 14.8007 1.22462 14.6329C1.05516 14.465 0.959961 14.2374 0.959961 14ZM30.7794 13.105C30.5398 13.105 30.3099 13.1993 30.1405 13.3671C29.971 13.535 29.8758 13.7626 29.8758 14C29.873 16.2938 28.9518 18.4929 27.3143 20.1149C25.6768 21.7369 23.4566 22.6493 21.1408 22.6521H4.04582L6.11662 20.5994C6.27623 20.4298 6.36313 20.2054 6.359 19.9735C6.35487 19.7416 6.26003 19.5204 6.09447 19.3564C5.92892 19.1924 5.70556 19.0985 5.47146 19.0944C5.23736 19.0903 5.0108 19.1764 4.8395 19.3345L1.22502 22.9146C1.0558 23.0824 0.960756 23.3099 0.960756 23.5471C0.960756 23.7843 1.0558 24.0118 1.22502 24.1796L4.8395 27.7598C5.0108 27.9179 5.23736 28.004 5.47146 27.9999C5.70556 27.9958 5.92892 27.9018 6.09447 27.7378C6.26003 27.5739 6.35487 27.3526 6.359 27.1207C6.36313 26.8889 6.27623 26.6645 6.11662 26.4948L4.04582 24.4422H21.1408C23.9358 24.439 26.6154 23.3378 28.5918 21.3802C30.5681 19.4226 31.6798 16.7685 31.683 14C31.683 13.7626 31.5878 13.535 31.4184 13.3671C31.2489 13.1993 31.0191 13.105 30.7794 13.105Z" fill="white"/>
<circle cx="16.5" cy="13.5" r="4.5" fill="white"/>
<path d="M16.2072 16V12.16L16.6272 12.58H15.3672V11.8H17.1792V16H16.2072Z" fill="black"/>
</g>
<defs>
<clipPath id="clip0_840_133">
<rect width="32" height="28" fill="white"/>
</clipPath>
</defs>
</svg>
