<svg width="36" height="27" viewBox="0 0 36 27" fill="none" xmlns="http://www.w3.org/2000/svg">
<path d="M30.166 17.6667L34.3327 21.8334L30.166 26.0001" stroke="#F2F2F2" stroke-width="2" stroke-linecap="round" stroke-linejoin="round"/>
<path d="M30.166 1L34.3327 5.16667L30.166 9.33334" stroke="#F2F2F2" stroke-width="2" stroke-linecap="round" stroke-linejoin="round"/>
<path d="M1 21.8333H8.39497C9.53814 21.8333 10.6636 21.5511 11.6715 21.0117C12.6794 20.4723 13.5386 19.6925 14.1728 18.7413L17.6667 13.5" stroke="#F2F2F2" stroke-width="2" stroke-linecap="round" stroke-linejoin="round"/>
<path d="M1 5.16675H8.39497C9.53813 5.16677 10.6636 5.449 11.6715 5.98838C12.6794 6.52777 13.5386 7.30764 14.1728 8.25877L21.1606 18.7414C21.7948 19.6925 22.6539 20.4724 23.6619 21.0118C24.6698 21.5512 25.7952 21.8334 26.9384 21.8334H31.5556" stroke="#F2F2F2" stroke-width="2" stroke-linecap="round" stroke-linejoin="round"/>
<path d="M31.5564 5.16675H26.9392C25.7961 5.16677 24.6706 5.449 23.6627 5.98838C22.6548 6.52777 21.7956 7.30764 21.1615 8.25877L20.4453 9.33342" stroke="#F2F2F2" stroke-width="2" stroke-linecap="round" stroke-linejoin="round"/>
</svg>
