<svg width="29" height="25" viewBox="0 0 29 25" fill="none" xmlns="http://www.w3.org/2000/svg">
<path d="M10.8262 2.86729L6.34677 7.49989H1.20833C0.540729 7.49989 0 8.05924 0 8.74983V16.2495C0 16.9395 0.540729 17.4994 1.20833 17.4994H6.34677L10.8262 22.132C11.5829 22.9148 12.8889 22.3648 12.8889 21.2482V3.75111C12.8889 2.63345 11.5819 2.08556 10.8262 2.86729ZM22.5732 0.207002C22.0108 -0.17475 21.2551 -0.0138204 20.886 0.568965C20.5165 1.15071 20.6736 1.93244 21.236 2.3142C24.5725 4.57919 26.5637 8.38683 26.5637 12.5002C26.5637 16.6135 24.5725 20.4212 21.236 22.6862C20.6736 23.0674 20.5165 23.8496 20.886 24.4309C21.2405 24.9886 21.9902 25.1892 22.5732 24.7928C26.5969 22.0607 29 17.4645 29 12.4997C29 7.53478 26.5969 2.93917 22.5732 0.207002ZM24.1667 12.4997C24.1667 9.19096 22.5525 6.14891 19.8484 4.36254C19.285 3.99068 18.5378 4.16359 18.1809 4.75106C17.8239 5.33853 17.9906 6.1161 18.554 6.48848C20.5553 7.81081 21.75 10.0576 21.75 12.4997C21.75 14.9417 20.5553 17.1885 18.554 18.5108C17.9906 18.8827 17.8239 19.6603 18.1809 20.2482C18.5086 20.7878 19.2442 21.0368 19.8484 20.6368C22.5525 18.8504 24.1667 15.8089 24.1667 12.4997ZM17.0289 8.4962C16.4459 8.16652 15.7103 8.3837 15.3871 8.98836C15.0654 9.59302 15.2784 10.3529 15.8629 10.6867C16.5129 11.056 16.9167 11.7513 16.9167 12.4997C16.9167 13.2486 16.5129 13.9433 15.8634 14.3126C15.2789 14.6464 15.0659 15.4063 15.3876 16.0109C15.7114 16.6182 16.4474 16.8338 17.0294 16.5031C18.4507 15.6933 19.3338 14.1595 19.3338 12.4991C19.3338 10.8388 18.4507 9.30553 17.0289 8.4962Z" fill="#F2F2F2"/>
</svg>
